<?xml version="1.0" standalone="no"?>
<!DOCTYPE svg PUBLIC "-//W3C//DTD SVG 20010904//EN"
 "http://www.w3.org/TR/2001/REC-SVG-20010904/DTD/svg10.dtd">
<svg version="1.0" xmlns="http://www.w3.org/2000/svg"
 width="700.000000pt" height="700.000000pt" viewBox="0 0 700.000000 700.000000"
 preserveAspectRatio="xMidYMid meet">
<metadata>
Created by potrace 1.14, written by Peter Selinger 2001-2017
</metadata>
<g transform="translate(0.000000,700.000000) scale(0.100000,-0.100000)"
fill="#000000" stroke="none">
<path d="M3280 6994 c-19 -2 -84 -9 -145 -14 -578 -56 -1180 -283 -1660 -625
-237 -169 -531 -446 -709 -670 -416 -521 -673 -1147 -748 -1820 -17 -154 -17
-585 0 -730 69 -588 254 -1099 567 -1570 126 -189 242 -332 410 -504 580 -595
1295 -943 2140 -1043 145 -17 576 -17 730 0 822 91 1556 447 2131 1034 203
206 348 390 487 618 274 449 432 915 499 1465 16 135 16 591 0 730 -100 846
-447 1557 -1043 2141 -555 542 -1249 874 -2029 970 -117 15 -553 27 -630 18z
m299 -940 c555 -66 1170 -325 1619 -683 462 -368 814 -891 1019 -1511 93 -281
153 -676 141 -920 -9 -175 -102 -283 -257 -297 -90 -8 -161 17 -226 80 -66 64
-81 111 -90 282 -23 417 -99 708 -281 1074 -337 679 -870 1115 -1613 1321
-716 199 -1327 100 -1868 -301 -375 -278 -623 -638 -733 -1063 -50 -197 -62
-280 -67 -496 -4 -160 -2 -230 11 -320 88 -608 428 -1120 953 -1435 240 -145
534 -243 823 -276 131 -15 398 -6 500 16 279 62 492 177 691 375 227 225 365
472 426 760 26 127 24 370 -6 510 -112 527 -417 902 -879 1081 -43 16 -133 44
-202 62 -118 30 -135 32 -300 32 -206 0 -255 -10 -405 -84 -212 -105 -362
-279 -433 -501 -147 -459 104 -936 568 -1081 62 -20 97 -24 205 -24 145 0 179
10 241 72 59 59 79 108 79 198 0 91 -20 139 -82 201 -48 48 -103 72 -199 84
-144 19 -243 94 -274 207 -16 55 -8 158 15 203 24 48 82 108 130 133 61 32
224 36 336 8 291 -72 536 -312 621 -608 20 -67 23 -101 23 -233 -1 -147 -3
-160 -33 -250 -93 -278 -315 -490 -599 -572 -68 -20 -101 -23 -253 -23 -158 0
-185 3 -280 28 -284 73 -499 194 -695 391 -257 257 -394 561 -420 926 -16 222
43 504 151 721 88 178 259 381 423 505 97 73 287 171 406 209 247 80 578 93
865 35 476 -96 957 -421 1239 -835 213 -312 332 -679 348 -1065 23 -582 -230
-1169 -677 -1567 -242 -215 -549 -374 -856 -442 -332 -74 -740 -72 -1064 5
-434 102 -856 338 -1203 673 -417 402 -667 896 -753 1486 -22 147 -25 522 -6
665 148 1115 963 1993 2049 2209 305 61 565 72 872 35z"/>
</g>
</svg>
